<svg width="25" height="19" viewBox="0 0 25 19" fill="none" xmlns="http://www.w3.org/2000/svg">
<path d="M24.7143 7.57329V8.23183C24.7143 8.77738 24.2595 9.21963 23.6984 9.21963H23.3598L22.2545 16.7429C22.1115 17.7162 21.2543 18.4391 20.2432 18.4391H4.80445C3.79336 18.4391 2.93614 17.7162 2.79311 16.7429L1.68784 9.21963H1.34922C0.788158 9.21963 0.333344 8.77738 0.333344 8.23183V7.57329C0.333344 7.02773 0.788158 6.58549 1.34922 6.58549H4.19963L8.71942 0.542545C9.15942 -0.0456928 10.0065 -0.175795 10.6115 0.252048C11.2165 0.679891 11.3503 1.5036 10.9103 2.09188L7.5493 6.58549H17.4983L14.1374 2.09184C13.6974 1.5036 13.8312 0.67985 14.4362 0.252007C15.0411 -0.175836 15.8883 -0.0457751 16.3283 0.542504L20.848 6.58549H23.6984C24.2595 6.58549 24.7143 7.02773 24.7143 7.57329ZM13.5397 14.8172V10.2074C13.5397 9.66188 13.0849 9.21963 12.5238 9.21963C11.9628 9.21963 11.5079 9.66188 11.5079 10.2074V14.8172C11.5079 15.3628 11.9628 15.805 12.5238 15.805C13.0849 15.805 13.5397 15.3628 13.5397 14.8172ZM18.2804 14.8172V10.2074C18.2804 9.66188 17.8256 9.21963 17.2646 9.21963C16.7035 9.21963 16.2487 9.66188 16.2487 10.2074V14.8172C16.2487 15.3628 16.7035 15.805 17.2646 15.805C17.8256 15.805 18.2804 15.3628 18.2804 14.8172ZM8.79895 14.8172V10.2074C8.79895 9.66188 8.34414 9.21963 7.78308 9.21963C7.22202 9.21963 6.76721 9.66188 6.76721 10.2074V14.8172C6.76721 15.3628 7.22202 15.805 7.78308 15.805C8.34414 15.805 8.79895 15.3628 8.79895 14.8172Z" fill="white"/>
</svg>
