<svg width="15" height="15" viewBox="0 0 15 15" fill="none" xmlns="http://www.w3.org/2000/svg">
<path d="M12.8086 2.18066C12.1178 1.48661 11.2951 0.936366 10.3886 0.561987C9.48204 0.187607 8.50971 -0.0034165 7.52825 4.62472e-05C3.41568 4.62472e-05 0.0640382 3.33566 0.0602712 7.43065C0.0602712 8.74221 0.404947 10.0181 1.05569 11.1478L0 15L3.95906 13.9669C5.05431 14.5602 6.28132 14.8712 7.52825 14.8716H7.53202C11.6455 14.8716 14.9962 11.5359 15 7.43721C15.0009 6.46038 14.8077 5.49302 14.4314 4.59086C14.0552 3.68869 13.5033 2.86957 12.8076 2.18066H12.8086ZM7.52825 13.6134C6.41606 13.6138 5.3243 13.3159 4.36778 12.7509L4.14176 12.6159L1.79307 13.2291L2.42027 10.9481L2.27335 10.7128C1.65163 9.72876 1.32281 8.58942 1.32502 7.4269C1.32502 4.02753 4.10974 1.25442 7.53202 1.25442C8.34732 1.25296 9.15484 1.41217 9.90804 1.72288C10.6612 2.03358 11.3452 2.48963 11.9205 3.06472C12.4978 3.63758 12.9555 4.31856 13.2671 5.06837C13.5788 5.81819 13.7382 6.62201 13.7362 7.43346C13.7324 10.845 10.9477 13.6134 7.52825 13.6134ZM10.9326 8.98783C10.7471 8.89502 9.8308 8.44596 9.65846 8.38221C9.48706 8.32127 9.36181 8.2894 9.23939 8.47502C9.11414 8.65971 8.75628 9.08064 8.64892 9.20158C8.54156 9.32627 8.43043 9.34033 8.24397 9.24846C8.05845 9.15471 7.45668 8.95971 6.74472 8.32502C6.1891 7.83283 5.81711 7.22346 5.70599 7.03877C5.59863 6.85315 5.69563 6.75378 5.78886 6.66096C5.87079 6.57846 5.97438 6.44346 6.06762 6.33659C6.16179 6.22971 6.19287 6.15096 6.25408 6.02721C6.31529 5.90159 6.2861 5.79472 6.23995 5.7019C6.19287 5.60909 5.82088 4.69316 5.66361 4.32378C5.51293 3.9591 5.35943 4.00972 5.24454 4.00503C5.13718 3.99847 5.01193 3.99847 4.88668 3.99847C4.79209 4.00081 4.69901 4.02259 4.61328 4.06244C4.52755 4.10229 4.45102 4.15934 4.3885 4.23003C4.2171 4.41566 3.73776 4.86472 3.73776 5.78065C3.73776 6.69659 4.40639 7.5769 4.50056 7.70159C4.59285 7.82627 5.81335 9.70033 7.68646 10.5066C8.12908 10.6988 8.47752 10.8122 8.74968 10.8984C9.19701 11.0409 9.60101 11.0194 9.92309 10.9734C10.2809 10.9191 11.0259 10.5235 11.1831 10.0894C11.3376 9.65439 11.3376 9.28314 11.2905 9.20533C11.2443 9.12658 11.1191 9.08064 10.9326 8.98783Z" fill="white"/>
</svg>
