<svg width="52" height="52" viewBox="0 0 52 52" fill="none" xmlns="http://www.w3.org/2000/svg">
<path fill-rule="evenodd" clip-rule="evenodd" d="M0 26C0 11.6402 11.6402 0 26 0C40.3598 0 52 11.6402 52 26C52 40.3598 40.3598 52 26 52C11.6402 52 0 40.3598 0 26ZM21.3382 17.6618C20.8478 17.1882 20.1911 16.9261 19.5094 16.932C18.8276 16.938 18.1755 17.2114 17.6935 17.6935C17.2114 18.1755 16.938 18.8276 16.932 19.5094C16.9261 20.1911 17.1882 20.8478 17.6618 21.3382L22.3236 26L17.6618 30.6618C17.4135 30.9016 17.2154 31.1885 17.0791 31.5057C16.9429 31.823 16.8711 32.1641 16.8681 32.5094C16.8651 32.8546 16.9309 33.1969 17.0617 33.5165C17.1924 33.836 17.3855 34.1263 17.6296 34.3704C17.8737 34.6145 18.164 34.8076 18.4835 34.9383C18.803 35.0691 19.1454 35.1349 19.4906 35.1319C19.8359 35.1289 20.177 35.0571 20.4943 34.9209C20.8115 34.7846 21.0984 34.5865 21.3382 34.3382L26 29.6764L30.6618 34.3382C31.1522 34.8118 31.8089 35.0739 32.4906 35.068C33.1724 35.062 33.8245 34.7886 34.3065 34.3065C34.7886 33.8245 35.062 33.1724 35.068 32.4906C35.0739 31.8089 34.8118 31.1522 34.3382 30.6618L29.6764 26L34.3382 21.3382C34.8118 20.8478 35.0739 20.1911 35.068 19.5094C35.062 18.8276 34.7886 18.1755 34.3065 17.6935C33.8245 17.2114 33.1724 16.938 32.4906 16.932C31.8089 16.9261 31.1522 17.1882 30.6618 17.6618L26 22.3236L21.3382 17.6618V17.6618Z" fill="#EA3449"/>
</svg>
